<?xml version="1.0" encoding="UTF-8" standalone="no"?>
<svg
   xmlns:dc="http://purl.org/dc/elements/1.1/"
   xmlns:cc="http://creativecommons.org/ns#"
   xmlns:rdf="http://www.w3.org/1999/02/22-rdf-syntax-ns#"
   xmlns:svg="http://www.w3.org/2000/svg"
   xmlns="http://www.w3.org/2000/svg"
   xmlns:sodipodi="http://sodipodi.sourceforge.net/DTD/sodipodi-0.dtd"
   xmlns:inkscape="http://www.inkscape.org/namespaces/inkscape"
   width="300"
   height="297"
   viewBox="0 0 299.99999 297"
   id="svg2"
   version="1.1"
   inkscape:version="0.91 r13725"
   sodipodi:docname="glas-4.svg">
  <sodipodi:namedview
     pagecolor="#ffffff"
     bordercolor="#666666"
     borderopacity="1"
     objecttolerance="10"
     gridtolerance="10"
     guidetolerance="10"
     inkscape:pageopacity="0"
     inkscape:pageshadow="2"
     inkscape:window-width="1680"
     inkscape:window-height="1028"
     id="namedview7"
     showgrid="false"
     units="px"
     inkscape:zoom="0.89056604"
     inkscape:cx="344.18299"
     inkscape:cy="-202.11467"
     inkscape:window-x="1912"
     inkscape:window-y="22"
     inkscape:window-maximized="1"
     inkscape:current-layer="svg2"
     inkscape:snap-bbox="true"
     inkscape:bbox-paths="true"
     inkscape:object-paths="true"
     inkscape:snap-page="true"
     inkscape:snap-bbox-edge-midpoints="true"
     fit-margin-top="0"
     fit-margin-left="0"
     fit-margin-right="0"
     fit-margin-bottom="0"
     inkscape:snap-grids="false"
     inkscape:snap-to-guides="false"
     inkscape:bbox-nodes="true" />
  <defs
     id="defs4" />
  <metadata
     id="metadata7">
    <rdf:RDF>
      <cc:Work
         rdf:about="">
        <dc:format>image/svg+xml</dc:format>
        <dc:type
           rdf:resource="http://purl.org/dc/dcmitype/StillImage" />
        <dc:title></dc:title>
      </cc:Work>
    </rdf:RDF>
  </metadata>
  <path
     style="display:inline;opacity:1;fill:#000000;fill-opacity:1;stroke:none;stroke-width:0.17716534;stroke-linecap:round;stroke-linejoin:round;stroke-miterlimit:3.4000001;stroke-dasharray:0.70866138, 1.41732275;stroke-dashoffset:0.49606296;stroke-opacity:1"
     d="m 0.0175771,0 0,95.086925 L 0,95.086925 0,297 l 299.9824,0 0,-40.46747 0.0176,0 L 299.99998,0 0.0175771,0 Z m 51.0829409,46.634278 78.870382,0 c 1.90705,0 3.44119,1.533537 3.44119,3.437301 l 0,45.015346 -0.0176,0 0,34.439485 c 0,0.70921 -0.21392,1.36591 -0.58004,1.91222 -0.61836,0.90506 -1.65818,1.49771 -2.84358,1.49771 l -78.870382,0 c -1.907062,0 -3.443158,-1.53157 -3.443158,-3.43535 l 0,-79.42941 c 0,-1.903765 1.536097,-3.437301 3.443158,-3.437301 z m 116.893532,0 78.87038,0 c 1.90706,0 3.44316,1.533537 3.44316,3.437301 l 0,45.015346 -0.0195,0 0,34.439485 c 0,0.71173 -0.21545,1.37063 -0.58396,1.91808 -0.001,0.002 -8.2e-4,0.004 -0.002,0.006 -0.11911,0.17265 -0.25232,0.33527 -0.40037,0.48295 -0.62241,0.62086 -1.48383,1.00303 -2.43735,1.00303 l -78.87038,0 c -1.90705,0 -3.44121,-1.53157 -3.4412,-3.43535 l 0,-79.429409 c 0,-1.903767 1.53415,-3.437302 3.4412,-3.437302 z M 51.08294,163.13492 l 78.86843,0 c 1.90705,0 3.44315,1.53161 3.44315,3.43534 l 0,79.37858 c -0.092,1.82054 -1.57633,3.26329 -3.42362,3.26329 l -78.870382,0 c -1.907062,0 -3.443158,-1.53352 -3.443158,-3.4373 l 0,-79.37858 c 0.09215,-1.82041 1.578285,-3.26133 3.42558,-3.26133 z m 116.89354,0 78.86842,0 c 1.90706,0 3.44316,1.5316 3.44316,3.43534 l 0,79.39813 c -0.102,1.81115 -1.58305,3.24374 -3.42363,3.24374 l -78.87038,0 c -1.90705,0 -3.44121,-1.53352 -3.4412,-3.4373 l 0,-79.37858 c 0.092,-1.82041 1.57633,-3.26133 3.42363,-3.26133 z"
     id="glas_svg"
     inkscape:connector-curvature="0" />
</svg>
