<?xml version="1.0" encoding="UTF-8" standalone="no"?>
<svg
   xmlns:dc="http://purl.org/dc/elements/1.1/"
   xmlns:cc="http://creativecommons.org/ns#"
   xmlns:rdf="http://www.w3.org/1999/02/22-rdf-syntax-ns#"
   xmlns:svg="http://www.w3.org/2000/svg"
   xmlns="http://www.w3.org/2000/svg"
   xmlns:sodipodi="http://sodipodi.sourceforge.net/DTD/sodipodi-0.dtd"
   xmlns:inkscape="http://www.inkscape.org/namespaces/inkscape"
   width="300"
   height="530"
   viewBox="0 0 299.99999 530.00001"
   id="svg2"
   version="1.1"
   inkscape:version="0.91 r13725"
   sodipodi:docname="glas.svg">
  <sodipodi:namedview
     pagecolor="#ffffff"
     bordercolor="#666666"
     borderopacity="1"
     objecttolerance="10"
     gridtolerance="10"
     guidetolerance="10"
     inkscape:pageopacity="0"
     inkscape:pageshadow="2"
     inkscape:window-width="1920"
     inkscape:window-height="1018"
     id="namedview7"
     showgrid="false"
     units="px"
     inkscape:zoom="0.44528303"
     inkscape:cx="150"
     inkscape:cy="264.99999"
     inkscape:window-x="-8"
     inkscape:window-y="-8"
     inkscape:window-maximized="1"
     inkscape:current-layer="svg2" />
  <defs
     id="defs4" />
  <metadata
     id="metadata7">
    <rdf:RDF>
      <cc:Work
         rdf:about="">
        <dc:format>image/svg+xml</dc:format>
        <dc:type
           rdf:resource="http://purl.org/dc/dcmitype/StillImage" />
        <dc:title></dc:title>
      </cc:Work>
    </rdf:RDF>
  </metadata>
  <path
     inkscape:connector-curvature="0"
     id="rect4247"
     d="M 0,-9.6730546e-6 0,529.99999 l 300,0 0,-529.9999996730546 -300,0 z M 51.086852,46.583569 l 78.873488,0 c 1.90717,0 3.44209,1.532328 3.44209,3.43404 l 0,79.343171 c 0,1.90172 -1.53492,3.43225 -3.44209,3.43225 l -78.873488,0 c -1.907172,0 -3.443897,-1.53053 -3.443897,-3.43225 l 0,-79.343171 c 0,-1.901712 1.536725,-3.43404 3.443897,-3.43404 z m 116.900128,0 78.87349,0 c 1.90717,0 3.4439,1.532328 3.4439,3.43404 l 0,79.343171 c 0,1.90172 -1.53673,3.43225 -3.4439,3.43225 l -78.87349,0 c -1.90717,0 -3.4421,-1.53053 -3.44209,-3.43225 l 0,-79.343171 c 0,-1.901712 1.53492,-3.43404 3.44209,-3.43404 z M 51.086852,162.73514 l 78.873488,0 c 1.90717,0 3.44209,1.53054 3.44209,3.43224 l 0,79.34318 c 0,1.90172 -1.53492,3.43225 -3.44209,3.43225 l -78.873488,0 c -1.907172,0 -3.443897,-1.53053 -3.443897,-3.43225 l 0,-79.34318 c 0,-1.9017 1.536725,-3.43224 3.443897,-3.43224 z m 116.900128,0 78.87349,0 c 1.90717,0 3.4439,1.53054 3.4439,3.43224 l 0,79.34318 c 0,1.90172 -1.53673,3.43225 -3.4439,3.43225 l -78.87349,0 c -1.90717,0 -3.4421,-1.53053 -3.44209,-3.43225 l 0,-79.34318 c 0,-1.9017 1.53492,-3.43224 3.44209,-3.43224 z m -116.900128,117.19647 78.873488,0 c 1.90717,0 3.44209,1.53054 3.44209,3.43226 l 0,79.34317 c 0,1.90171 -1.53492,3.43403 -3.44209,3.43403 l -78.873488,0 c -1.907172,0 -3.443897,-1.53232 -3.443897,-3.43403 l 0,-79.34317 c 0,-1.90172 1.536725,-3.43226 3.443897,-3.43226 z m 116.900128,0 78.87349,0 c 1.90717,0 3.4439,1.53054 3.4439,3.43226 l 0,79.34317 c 0,1.90171 -1.53673,3.43403 -3.4439,3.43403 l -78.87349,0 c -1.90717,0 -3.4421,-1.53232 -3.44209,-3.43403 l 0,-79.34317 c 0,-1.90172 1.53492,-3.43226 3.44209,-3.43226 z m -116.900128,116.34693 78.873488,0 c 1.90717,0 3.44209,1.53057 3.44209,3.43225 l 0,79.34318 c 0,1.90171 -1.53492,3.43224 -3.44209,3.43224 l -78.873488,0 c -1.907172,0 -3.443897,-1.53053 -3.443897,-3.43224 l 0,-79.34318 c 0,-1.90171 1.536725,-3.43225 3.443897,-3.43225 z m 116.900128,0 78.87349,0 c 1.90717,0 3.4439,1.53056 3.4439,3.43225 l 0,79.34318 c 0,1.90171 -1.53673,3.43224 -3.4439,3.43224 l -78.87349,0 c -1.90717,0 -3.4421,-1.53053 -3.44209,-3.43224 l 0,-79.34318 c 0,-1.90171 1.53492,-3.43225 3.44209,-3.43225 z"
     style="display:inline;opacity:1;fill:#1a1a1a;fill-opacity:1;stroke:none;stroke-width:0.17716534;stroke-linecap:round;stroke-linejoin:round;stroke-miterlimit:3.4000001;stroke-dasharray:0.70866138, 1.41732275;stroke-dashoffset:0.49606296;stroke-opacity:1" />
</svg>
